<?xml version="1.0" encoding="UTF-8" standalone="no"?>
<!-- Created with Inkscape (http://www.inkscape.org/) -->

<svg
   xmlns:dc="http://purl.org/dc/elements/1.1/"
   xmlns:cc="http://creativecommons.org/ns#"
   xmlns:rdf="http://www.w3.org/1999/02/22-rdf-syntax-ns#"
   xmlns:svg="http://www.w3.org/2000/svg"
   xmlns="http://www.w3.org/2000/svg"
   xmlns:sodipodi="http://sodipodi.sourceforge.net/DTD/sodipodi-0.dtd"
   xmlns:inkscape="http://www.inkscape.org/namespaces/inkscape"
   id="svg2"
   version="1.1"
   inkscape:version="0.91 r13725"
   xml:space="preserve"
   width="3625"
   height="1156.25"
   viewBox="0 0 3625 1156.25"
   sodipodi:docname="logo_sheltair_white.svg"><sodipodi:namedview
     pagecolor="#ffffff"
     bordercolor="#666666"
     borderopacity="1"
     objecttolerance="10"
     gridtolerance="10"
     guidetolerance="10"
     inkscape:pageopacity="0"
     inkscape:pageshadow="2"
     inkscape:window-width="1683"
     inkscape:window-height="961"
     id="namedview4"
     showgrid="false"
     inkscape:zoom="0.30009657"
     inkscape:cx="1817.108"
     inkscape:cy="713.44161"
     inkscape:window-x="0"
     inkscape:window-y="0"
     inkscape:window-maximized="0"
     inkscape:current-layer="g10" /><metadata
     id="metadata8"><rdf:RDF><cc:Work
         rdf:about=""><dc:format>image/svg+xml</dc:format><dc:type
           rdf:resource="http://purl.org/dc/dcmitype/StillImage" /><dc:title></dc:title></cc:Work></rdf:RDF></metadata><defs
     id="defs6"><clipPath
       clipPathUnits="userSpaceOnUse"
       id="clipPath16"><path
         d="m 1849.014,710.463 c -6.107,-11.333 -9.149,-21.564 -9.149,-30.715 l 0,0 c 0,-13.508 6.963,-23.312 20.912,-29.405 l 0,0 c 3.92,-1.749 8.496,-2.617 13.725,-2.617 l 0,0 c 14.376,0 26.793,8.496 37.251,25.488 l 0,0 c 3.481,6.094 5.225,13.289 5.225,21.563 l 0,0 c 0,14.811 -6.974,25.27 -20.908,31.375 l 0,0 c -3.922,1.303 -8.07,1.957 -12.418,1.957 l 0,0 c -17.434,0 -28.981,-5.88 -34.638,-17.646"
         id="path18"
         inkscape:connector-curvature="0" /></clipPath><linearGradient
       x1="0"
       y1="0"
       x2="1"
       y2="0"
       gradientUnits="userSpaceOnUse"
       gradientTransform="matrix(2786,-450,450,2786,368,932)"
       spreadMethod="pad"
       id="linearGradient24"><stop
         style="stop-opacity:1;stop-color:#ffffff"
         offset="0"
         id="stop26" /><stop
         style="stop-opacity:1;stop-color:#ffffff"
         offset="0.00683113"
         id="stop28" /><stop
         style="stop-opacity:1;stop-color:#ffffff"
         offset="0.25440267"
         id="stop30" /><stop
         style="stop-opacity:1;stop-color:#ffffff"
         offset="0.999539"
         id="stop32" /><stop
         style="stop-opacity:1;stop-color:#ffffff"
         offset="1"
         id="stop34" /></linearGradient><clipPath
       clipPathUnits="userSpaceOnUse"
       id="clipPath42"><path
         d="m 601.464,724.191 c -7.843,-2.616 -14.164,-8.937 -18.952,-18.955 l 0,0 c -5.229,-12.199 -22.445,-65.351 -51.63,-159.463 l 0,0 C 514.319,490.88 500.922,444.368 490.691,406.246 l 0,0 c -3.498,-13.038 -6.628,-25.071 -9.44,-36.246 l 0,0 c -0.008,-0.01 -0.017,-0.011 -0.024,-0.022 l 0,0 c -8.282,-11.765 -20.26,-22.004 -35.947,-30.713 l 0,0 c -13.069,-7.414 -23.749,-11.339 -32.022,-11.766 l 0,0 c -18.298,-0.881 -29.192,-0.113 -32.676,2.289 l 0,0 c -3.49,2.388 -3.707,5.114 -0.654,8.169 l 0,0 c 3.921,3.918 9.15,11.76 15.689,23.526 l 0,0 c 4.347,8.268 7.514,16.011 9.472,23.199 l 0,0 c 1.962,7.188 3.157,13.829 3.595,19.935 l 0,0 c 0.866,22.645 -4.146,44.65 -15.03,66.007 l 0,0 c -4.362,8.71 -8.495,16.111 -12.418,22.218 l 0,0 c -3.921,6.093 -8.065,10.885 -12.417,14.375 l 0,0 c -2.186,1.736 -2.186,5.661 0,11.767 l 0,0 c 0.868,1.734 2.176,4.459 3.921,8.168 l 0,0 c 1.737,3.7 4.135,8.597 7.188,14.704 l 0,0 c 4.789,9.15 7.618,16.553 8.496,22.218 l 0,0 c 0.431,16.118 -10.027,24.614 -31.368,25.488 l 0,0 c -10.895,0.428 -22.658,-3.263 -35.293,-11.106 l 0,0 C 310,571.482 303.025,562.546 300.854,551.66 l 0,0 c -0.44,-2.188 -0.768,-4.251 -0.981,-6.207 l 0,0 c -0.227,-1.962 -0.327,-3.824 -0.327,-5.559 l 0,0 c 0,-5.667 1.194,-11.221 3.594,-16.666 l 0,0 c 2.388,-5.452 3.369,-9.697 2.94,-12.74 l 0,0 c -3.921,-11.767 -18.524,-35.519 -43.785,-71.239 l 0,0 C 250.959,423.13 240.941,409.289 232.231,397.75 l 0,0 c -8.72,-11.547 -16.124,-20.809 -22.218,-27.772 l 0,0 c -21.781,-24.406 -44.002,-38.555 -66.66,-42.479 l 0,0 c -1.734,-0.442 -2.616,-2.837 -2.616,-7.188 l 0,0 c 0,-7.843 1.531,-15.03 4.575,-21.564 l 0,0 c 0.44,-2.616 2.616,-3.924 6.537,-3.924 l 0,0 c 20.046,3.924 36.598,11.111 49.668,21.564 l 0,0 c 1.745,1.735 3.921,1.521 6.534,-0.654 l 0,0 c 17.86,-18.294 42.694,-26.57 74.503,-24.835 l 0,0 c 15.247,0.881 26.793,2.19 34.637,3.925 l 0,0 c 0.428,0.426 5.881,2.616 16.339,6.535 l 0,0 c 3.039,0.866 5.657,0.651 7.842,-0.655 l 0,0 c 5.655,-3.918 17.86,-6.534 36.597,-7.842 l 0,0 c 16.115,-0.868 30.491,-0.213 43.131,1.962 l 0,0 c 17.404,2.799 33.228,9.324 47.53,19.435 l 0,0 c -1.57,-11.728 2.796,-18.888 13.237,-21.397 l 0,0 c 3.921,-1.31 12.417,-0.654 25.489,1.962 l 0,0 c 8.708,1.308 14.806,7.615 18.3,18.954 l 0,0 c 8.71,27.444 25.702,60.34 50.973,98.682 l 0,0 c 29.623,44.872 51.405,71.446 65.353,79.728 l 0,0 c 6.964,4.352 12.634,6.534 16.992,6.534 l 0,0 c 4.351,0 6.535,-2.609 6.535,-7.841 l 0,0 c 0,-2.617 -0.225,-4.572 -0.652,-5.88 l 0,0 c -3.494,-9.591 -6.864,-19.173 -10.131,-28.759 l 0,0 c -3.267,-9.584 -6.648,-19.174 -10.128,-28.752 l 0,0 C 632.394,391.757 625.207,367.79 623.03,355.603 l 0,0 c -0.441,-3.497 -0.766,-6.647 -0.982,-9.477 l 0,0 c -0.222,-2.843 -0.325,-5.126 -0.325,-6.861 l 0,0 c 0,-13.515 7.515,-24.835 22.547,-33.984 l 0,0 c 15.029,-9.15 38.884,-13.73 71.56,-13.73 l 0,0 c 6.537,0 12.744,0.328 18.627,0.982 l 0,0 c 5.88,0.655 11.649,1.422 17.319,2.29 l 0,0 c 24.394,3.924 45.747,15.03 64.043,33.331 l 0,0 c 0.543,0.54 1.043,1.246 1.503,2.111 l 0,0 c 4.577,-6.22 9.919,-11.958 16.141,-17.142 l 0,0 c 20.477,-16.566 55.766,-24.834 105.871,-24.834 l 0,0 c 23.957,0 45.523,1.962 64.702,5.88 l 0,0 c 22.805,4.068 42.917,14.319 60.394,30.579 l 0,0 c 4.176,-10.665 11.447,-18.931 21.94,-24.701 l 0,0 c 13.071,-6.092 29.409,-9.149 49.014,-9.149 l 0,0 c 12.193,0 25.265,1.309 39.213,3.925 l 0,0 c 24.394,3.924 45.744,15.03 64.045,33.331 l 0,0 c 0.8,0.8 1.481,2.077 2.105,3.583 l 0,0 c 4.776,-10.992 12.545,-20.043 23.373,-27.11 l 0,0 c 13.938,-8.722 33.761,-13.076 59.472,-13.076 l 0,0 c 10.018,0 21.127,1.097 33.331,3.272 l 0,0 c 20.079,3.23 38.064,11.407 54.015,24.377 l 0,0 c 2.16,-3.544 4.604,-6.895 7.409,-10.001 l 0,0 c 11.763,-14.376 28.318,-21.564 49.667,-21.564 l 0,0 c 22.223,0 45.525,10.884 69.929,32.676 l 0,0 c 16.992,15.242 28.755,29.406 35.289,42.48 l 0,0 c 0.872,1.735 2.066,3.263 3.598,4.572 l 0,0 c 1.521,1.308 2.716,1.734 3.592,1.308 l 0,0 c 0.428,-0.881 0.428,-2.182 0,-3.924 l 0,0 c -3.492,-13.068 -5.228,-22.659 -5.228,-28.752 l 0,0 c 0,-13.069 5.556,-23.638 16.667,-31.695 l 0,0 c 11.107,-8.07 31.91,-12.093 62.41,-12.093 l 0,0 c 6.099,0 11.977,0.225 17.644,0.654 l 0,0 c 5.659,0.44 11.112,1.094 16.341,1.962 l 0,0 c 24.041,3.867 45.111,14.745 63.233,32.574 l 0,0 c 2.191,-3.697 4.771,-7.283 7.991,-10.683 l 0,0 c 3.922,-4.145 9.15,-8.603 15.685,-13.395 l 0,0 c 10.886,-7.414 30.277,-11.112 58.165,-11.112 l 0,0 c 6.095,0 11.866,0.225 17.319,0.654 l 0,0 c 4.969,0.4 9.826,1.032 14.617,1.791 l 0,0 c 0.636,-0.101 1.307,-0.074 2.044,0.171 l 0,0 c 19.179,3.043 37.253,11.111 54.244,24.18 l 0,0 c 27.447,22.651 50.323,52.056 68.62,88.224 l 0,0 c 0.43,0.868 3.483,8.17 9.15,21.897 l 0,0 c 5.655,13.723 13.937,34.085 24.834,61.101 l 0,0 c 2.176,6.102 5.002,8.056 8.497,5.887 l 0,0 c 14.374,-7.849 23.085,-14.823 26.137,-20.917 l 0,0 c 3.044,-6.534 3.044,-12.413 0,-17.646 l 0,0 c -3.49,-5.666 -8.719,-18.3 -15.683,-37.902 l 0,0 c -4.799,-12.64 -8.824,-24.407 -12.092,-35.291 l 0,0 c -3.266,-10.893 -5.992,-21.351 -8.167,-31.369 l 0,0 c -1.309,-6.106 -1.959,-11.333 -1.959,-15.684 l 0,0 c 0,-17.432 9.474,-30.5 28.428,-39.21 l 0,0 c 9.511,-4.373 21.636,-6.82 36.362,-7.353 l 0,0 c 0.058,0.264 0.139,0.522 0.199,0.786 l 0,0 634.869,0.042 c 10.726,0 29.615,8.733 29.615,19.458 l 0,0 c 0,10.725 -9.78,14.807 -20.503,14.807 l 0,0 -635.251,3.616 c -0.215,0 -0.457,-0.023 -0.678,-0.029 l 0,0 c -9.512,3.353 -13.257,10.488 -10.96,21.605 l 0,0 c 0.872,3.924 3.158,10.999 6.865,21.244 l 0,0 c 3.697,10.231 9.037,23.626 16.011,40.19 l 0,0 c 13.939,33.985 21.568,54.454 22.871,61.429 l 0,0 c 1.739,11.324 -1.745,20.689 -10.455,28.104 l 0,0 c -5.228,4.352 -15.683,10.886 -31.368,19.601 l 0,0 c -7.846,4.352 -14.379,7.736 -19.607,10.131 l 0,0 c -5.227,2.39 -9.374,4.352 -12.417,5.881 l 0,0 c -3.054,1.521 -5.011,2.943 -5.88,4.251 l 0,0 c -0.878,1.308 -0.878,3.27 0,5.879 l 0,0 c 2.614,7.409 3.694,13.076 3.265,16.993 l 0,0 c -1.745,20.916 -11.106,31.589 -28.099,32.022 l 0,0 c -20.046,0.434 -32.463,-11.76 -37.251,-36.594 l 0,0 c -0.441,-2.188 -0.768,-4.365 -0.981,-6.534 l 0,0 c -0.224,-2.187 -0.328,-4.15 -0.328,-5.887 l 0,0 c 0,-5.665 1.309,-11.106 3.921,-16.337 l 0,0 c 2.617,-5.226 4.138,-9.151 4.575,-11.76 l 0,0 c 0,-0.441 -0.113,-0.981 -0.328,-1.635 l 0,0 c -0.222,-0.654 -0.55,-1.862 -0.98,-3.597 l 0,0 c -7.841,-28.325 -18.951,-57.075 -33.327,-86.263 l 0,0 c -13.07,-26.583 -23.966,-45.316 -32.679,-56.202 l 0,0 c -9.488,-10.803 -17.377,-19.019 -23.672,-24.655 l 0,0 c -3.89,-2.779 -7.933,-5.477 -12.267,-8.021 l 0,0 c -5.587,-3.352 -10.645,-5.837 -15.355,-7.755 l 0,0 c -3.536,-1.258 -7.283,-2.396 -11.243,-3.411 l 0,0 c -1.886,-0.325 -3.741,-0.6 -5.424,-0.6 l 0,0 c -22.662,0 -38.348,3.697 -47.056,11.112 l 0,0 c -3.054,2.61 -4.576,6.749 -4.576,12.414 l 0,0 c 0,4.793 1.736,13.074 5.229,24.835 l 0,0 c 10.017,29.185 19.382,57.069 28.101,83.65 l 0,0 c 8.709,26.571 17.205,52.059 25.489,76.466 l 0,0 c 0.868,5.226 0.099,10.231 -2.291,15.03 l 0,0 c -2.397,4.785 -5.551,7.615 -9.472,8.496 l 0,0 c -14.378,3.918 -29.848,3.484 -46.401,-1.309 l 0,0 c -7.415,-2.181 -12.419,-8.721 -15.029,-19.607 l 0,0 c -4.363,-13.949 -8.611,-27.885 -12.744,-41.827 l 0,0 c -4.149,-13.949 -8.397,-27.883 -12.744,-41.819 l 0,0 c -7.416,-24.835 -14.693,-44.769 -18.391,-59.799 l 0,0 C 1745.238,380.111 1741,370.193 1741,365.402 l 0,0 0,-0.201 c 0,-4.218 -5.598,-8.248 -10.03,-11.886 l 0,0 c -6.106,-5.013 -11.995,-9.705 -19.397,-14.05 l 0,0 c -13.071,-7.842 -23.322,-11.766 -31.593,-11.766 l 0,0 c -22.22,0 -36.606,3.484 -43.57,10.458 l 0,0 c -3.052,3.043 -4.467,7.403 -4.467,13.068 l 0,0 c 0,6.099 1.574,13.722 4.63,22.873 l 0,0 c 3.042,9.149 6.885,19.934 11.461,32.348 l 0,0 c 4.577,12.421 10.358,26.683 17.333,42.806 l 0,0 c 18.301,40.953 30.498,67.97 36.604,81.038 l 0,0 c 3.044,8.276 2.392,14.81 -1.956,19.608 l 0,0 c -3.052,2.617 -10.68,5.005 -22.873,7.188 l 0,0 c -12.2,2.616 -20.482,3.27 -24.834,1.962 l 0,0 c -3.49,-1.308 -6.973,-3.704 -10.454,-7.188 l 0,0 c -2.185,-2.188 -4.798,-5.666 -7.842,-10.458 l 0,0 c -2.615,-4.798 -7.414,-5.226 -14.378,-1.308 l 0,0 c -14.817,7.841 -31.156,11.541 -49.015,11.112 l 0,0 c -23.965,-0.44 -47.707,-7.188 -71.235,-20.263 l 0,0 c -31.37,-17.425 -55.771,-42.913 -73.195,-76.457 l 0,0 c -17.419,-33.118 -26.138,-63.831 -26.138,-92.149 l 0,0 c 0,-3.259 0.181,-6.395 0.453,-9.469 l 0,0 c -5.89,-4.762 -12.33,-9.251 -19.401,-13.403 l 0,0 c -13.072,-7.842 -23.754,-11.766 -32.022,-11.766 l 0,0 c -17.433,0 -31.372,5.226 -41.826,15.684 l 0,0 c -7.416,7.401 -8.937,18.3 -4.576,32.677 l 0,0 c 6.965,22.651 13.398,44.002 19.278,64.043 l 0,0 c 5.883,20.037 11.213,38.776 16.012,56.209 l 0,0 c 1.738,3.918 4.349,5.88 7.841,5.88 l 0,0 c 31.372,0 46.179,-0.227 44.442,-0.654 l 0,0 c 4.349,0.427 7.189,2.389 8.497,5.879 l 0,0 c 3.921,8.711 5.443,16.119 4.571,22.219 l 0,0 c -0.877,5.232 -2.612,8.062 -5.225,8.496 l 0,0 c -7.415,0.434 -14.379,0.76 -20.913,0.981 l 0,0 c -6.538,0.213 -12.417,0.327 -17.646,0.327 l 0,0 c -4.358,1.308 -6.107,3.924 -5.229,7.842 l 0,0 c 6.096,20.035 12.193,39.543 18.3,58.491 l 0,0 c 6.097,18.954 12.192,37.581 18.296,55.877 l 0,0 c 1.739,10.883 -0.651,17.425 -7.187,19.607 l 0,0 c -16.562,4.352 -32.9,4.352 -49.014,0 l 0,0 c -7.412,-2.182 -11.987,-5.453 -13.723,-9.806 l 0,0 c -6.974,-22.657 -13.511,-44.108 -19.608,-64.369 l 0,0 c -6.106,-20.257 -11.763,-39.693 -16.992,-58.42 l 0,0 c -3.054,-4.358 -5.666,-6.462 -7.842,-6.462 l 0,0 -3.921,0 -6.534,0 -10.458,0 c -6.104,0 -10.677,-1.934 -13.722,-6.279 l 0,0 c -1.749,-4.798 -3.167,-8.809 -4.248,-12.294 l 0,0 c -1.086,-3.489 -2.062,-6.469 -2.943,-9.085 l 0,0 c -2.173,-5.226 -1.305,-8.25 2.616,-9.118 l 0,0 c 5.229,-0.434 9.905,-0.745 14.049,-0.958 l 0,0 c 4.137,-0.227 7.945,-0.32 11.439,-0.32 l 0,0 c 4.348,-1.308 6.31,-3.493 5.88,-6.537 l 0,0 c -0.438,-0.874 -1.959,-6.103 -4.575,-15.681 l 0,0 c -2.613,-9.584 -6.534,-23.525 -11.763,-41.826 l 0,0 c -10.486,-35.641 -16.067,-58.638 -16.868,-69.256 l 0,0 c -0.257,-0.223 -0.499,-0.345 -0.768,-0.668 l 0,0 c -4.362,-6.106 -9.588,-11.657 -15.685,-16.663 l 0,0 c -6.106,-5.013 -12.857,-9.705 -20.259,-14.05 l 0,0 c -13.07,-7.842 -23.752,-11.766 -32.022,-11.766 l 0,0 c -23.529,0 -38.345,3.043 -44.442,9.151 l 0,0 c -3.053,3.042 -4.575,7.4 -4.575,13.067 l 0,0 c 0,4.792 1.522,13.288 4.575,25.489 l 0,0 c 9.581,43.133 26.568,101.298 50.976,174.492 l 0,0 c 6.534,14.81 11.109,23.953 13.726,27.449 l 0,0 c 20.913,27.879 35.943,55.323 45.093,82.346 l 0,0 c 2.613,8.269 3.92,16.111 3.92,23.526 l 0,0 c 0,11.758 -2.943,21.451 -8.822,29.079 l 0,0 c -5.883,7.62 -13.399,11.866 -22.549,12.748 l 0,0 c -27.016,2.175 -47.929,-16.339 -62.735,-55.556 l 0,0 c -13.949,-35.285 -28.983,-81.256 -45.094,-137.892 l 0,0 c -20.046,-70.577 -31.799,-123.303 -35.292,-158.155 l 0,0 c -0.209,-2.56 -0.394,-4.953 -0.555,-7.2 l 0,0 c -18.137,-22.707 -39.918,-35.418 -65.442,-37.889 l 0,0 c -41.395,-3.925 -71.672,-0.442 -90.84,10.457 l 0,0 c -5.229,2.61 -7.842,4.787 -7.842,6.534 l 0,0 c 0,0.427 1.081,1.736 3.267,3.917 l 0,0 c 8.272,6.101 16.665,12.962 25.162,20.59 l 0,0 c 8.495,7.614 17.09,16.225 25.814,25.815 l 0,0 c 27.874,30.06 43.562,55.547 47.052,76.458 l 0,0 c 1.309,7.849 1.962,15.249 1.962,22.225 l 0,0 c 0,31.368 -12.644,52.498 -37.905,63.39 l 0,0 c -6.534,3.043 -15.47,4.578 -26.796,4.578 l 0,0 c -20.042,0 -39.434,-5.232 -58.161,-15.69 l 0,0 C 854.591,534.227 836.947,515.714 824.314,490.88 l 0,0 c -17.42,-34.419 -26.14,-66.661 -26.14,-96.721 l 0,0 c 0,-12.53 1.603,-24.05 4.72,-34.617 l 0,0 c -2.129,-2.138 -4.283,-4.26 -6.678,-6.227 l 0,0 c -6.107,-5.013 -12.858,-9.705 -20.259,-14.05 l 0,0 c -13.072,-7.842 -23.753,-11.766 -32.022,-11.766 l 0,0 c -17.433,0 -30.942,1.962 -40.522,5.88 l 0,0 c -9.588,3.924 -14.376,10.671 -14.376,20.262 l 0,0 c 0,7.401 1.521,15.456 4.575,24.18 l 0,0 c 8.708,26.142 16.438,49.441 23.199,69.924 l 0,0 c 6.75,20.476 12.958,38.336 18.628,53.593 l 0,0 c 1.304,4.351 1.958,8.709 1.958,13.068 l 0,0 c 0,21.783 -9.587,35.719 -28.755,41.826 l 0,0 c -5.229,1.736 -11.551,2.616 -18.951,2.616 l 0,0 c -21.354,0 -40.091,-7.842 -56.205,-23.525 l 0,0 c -5.228,-4.799 -10.897,-10.786 -16.99,-17.974 l 0,0 c -6.106,-7.188 -12.857,-15.144 -20.259,-23.853 l 0,0 c -6.535,-7.842 -11.663,-14.162 -15.36,-18.955 l 0,0 c -3.707,-4.798 -5.993,-8.068 -6.861,-9.804 l 0,0 c -0.441,-1.742 -1.308,-2.609 -2.612,-2.609 l 0,0 c -4.362,0 -5.016,3.477 -1.963,10.451 l 0,0 c 2.176,5.66 10.232,26.25 24.18,61.762 l 0,0 c 13.939,35.507 33.761,86.369 59.473,152.596 l 0,0 c 2.613,6.54 3.92,12.193 3.92,16.993 l 0,0 c 0,6.533 -3.267,12.419 -9.803,17.645 l 0,0 c -3.054,2.175 -10.457,3.697 -22.219,4.577 l 0,0 c -11.335,0 -19.177,-0.653 -23.528,-1.961 M 864.835,394.159 c 0,19.609 6.963,44.002 20.913,73.195 l 0,0 c 6.093,13.068 14.48,23.626 25.157,31.695 l 0,0 c 10.673,8.055 20.364,12.093 29.083,12.093 l 0,0 c 12.634,0 18.954,-7.415 18.954,-22.224 l 0,0 c 0,-10.452 -4.798,-23.747 -14.379,-39.866 l 0,0 c -15.254,-26.141 -37.476,-48.359 -66.662,-66.659 l 0,0 c -2.653,-1.859 -4.902,-2.787 -6.747,-2.787 l 0,0 c -10e-4,0 -0.002,0 -0.003,0 l 0,0 c -4.214,0 -6.316,4.851 -6.316,14.553 m 603.834,-28.757 c 0,21.342 9.804,47.485 29.41,78.426 l 0,0 c 10.884,16.551 25.261,30.713 43.13,42.48 l 0,0 c 18.729,11.759 34.639,17.206 47.709,16.338 l 0,0 c 14.807,-0.441 22.22,-4.365 22.22,-11.766 l 0,0 c 0,-1.743 -0.224,-3.05 -0.655,-3.918 l 0,0 C 1590,442.948 1569.741,408.749 1549.706,384.356 l 0,0 c -7.412,-8.724 -13.399,-15.8 -17.97,-21.238 l 0,0 c -4.575,-5.453 -7.955,-9.262 -10.13,-11.439 l 0,0 c -11.337,-11.332 -21.139,-16.992 -29.411,-16.992 l 0,0 c -15.683,0 -23.526,10.231 -23.526,30.715 M 276.671,334.032 c -2.613,11.328 -7.626,18.727 -15.03,22.225 l 0,0 c -5.229,1.736 -7.843,3.918 -7.843,6.534 l 0,0 c 0,1.308 1.082,3.477 3.267,6.534 l 0,0 c 5.658,6.535 16.769,20.256 33.331,41.172 l 0,0 c 18.727,24.835 28.968,39.21 30.717,43.135 l 0,0 c 1.305,3.042 3.045,4.571 5.226,4.571 l 0,0 c 2.175,0.868 3.92,-0.226 5.229,-3.263 l 0,0 c 4.789,-10.459 7.187,-23.753 7.187,-39.871 l 0,0 c 0,-12.2 -1.53,-22.872 -4.574,-32.022 l 0,0 c -8.279,-26.576 -22.872,-43.355 -43.785,-50.322 l 0,0 c -3.552,-1.119 -6.422,-1.68 -8.61,-1.68 l 0,0 c -10e-4,0 -0.002,0 -0.003,0 l 0,0 c -2.913,0 -4.615,0.995 -5.112,2.987"
         id="path44"
         inkscape:connector-curvature="0" /></clipPath><linearGradient
       x1="0"
       y1="0"
       x2="1"
       y2="0"
       gradientUnits="userSpaceOnUse"
       gradientTransform="matrix(2786,-450,450,2786,330,692)"
       spreadMethod="pad"
       id="linearGradient50"><stop
         style="stop-opacity:1;stop-color:#ffffff"
         offset="0"
         id="stop52" /><stop
         style="stop-opacity:1;stop-color:#ffffff"
         offset="0.00683113"
         id="stop54" /><stop
         style="stop-opacity:1;stop-color:#ffffff"
         offset="0.25440267"
         id="stop56" /><stop
         style="stop-opacity:1;stop-color:#ffffff"
         offset="0.999539"
         id="stop58" /><stop
         style="stop-opacity:1;stop-color:#ffffff"
         offset="1"
         id="stop60" /></linearGradient><linearGradient
       x1="0"
       y1="0"
       x2="1"
       y2="0"
       gradientUnits="userSpaceOnUse"
       gradientTransform="matrix(2786,-450,450,2786,368,932)"
       spreadMethod="pad"
       id="linearGradient24-130"><stop
         style="stop-opacity:1;stop-color:#ffffff"
         offset="0"
         id="stop4179" /><stop
         style="stop-opacity:1;stop-color:#ffffff"
         offset="0.00683113"
         id="stop4181" /><stop
         style="stop-opacity:1;stop-color:#ffffff"
         offset="0.25440267"
         id="stop4183" /><stop
         style="stop-opacity:1;stop-color:#ffffff"
         offset="0.999539"
         id="stop4185" /><stop
         style="stop-opacity:1;stop-color:#ffffff"
         offset="1"
         id="stop4187" /></linearGradient><linearGradient
       x1="0"
       y1="0"
       x2="1"
       y2="0"
       gradientUnits="userSpaceOnUse"
       gradientTransform="matrix(2786,-450,450,2786,330,692)"
       spreadMethod="pad"
       id="linearGradient50-21"><stop
         style="stop-opacity:1;stop-color:#ffffff"
         offset="0"
         id="stop4190" /><stop
         style="stop-opacity:1;stop-color:#ffffff"
         offset="0.00683113"
         id="stop4192" /><stop
         style="stop-opacity:1;stop-color:#ffffff"
         offset="0.25440267"
         id="stop4194" /><stop
         style="stop-opacity:1;stop-color:#ffffff"
         offset="0.999539"
         id="stop4196" /><stop
         style="stop-opacity:1;stop-color:#ffffff"
         offset="1"
         id="stop4198" /></linearGradient><linearGradient
       x1="0"
       y1="0"
       x2="1"
       y2="0"
       gradientUnits="userSpaceOnUse"
       gradientTransform="matrix(2786,-450,450,2786,368,932)"
       spreadMethod="pad"
       id="linearGradient24-130-935"><stop
         style="stop-opacity:1;stop-color:#ffffff"
         offset="0"
         id="stop4286" /><stop
         style="stop-opacity:1;stop-color:#ffffff"
         offset="0.00683113"
         id="stop4288" /><stop
         style="stop-opacity:1;stop-color:#ffffff"
         offset="0.25440267"
         id="stop4290" /><stop
         style="stop-opacity:1;stop-color:#ffffff"
         offset="0.999539"
         id="stop4292" /><stop
         style="stop-opacity:1;stop-color:#ffffff"
         offset="1"
         id="stop4294" /></linearGradient><linearGradient
       x1="0"
       y1="0"
       x2="1"
       y2="0"
       gradientUnits="userSpaceOnUse"
       gradientTransform="matrix(2786,-450,450,2786,330,692)"
       spreadMethod="pad"
       id="linearGradient50-21-345"><stop
         style="stop-opacity:1;stop-color:#ffffff"
         offset="0"
         id="stop4297" /><stop
         style="stop-opacity:1;stop-color:#ffffff"
         offset="0.00683113"
         id="stop4299" /><stop
         style="stop-opacity:1;stop-color:#ffffff"
         offset="0.25440267"
         id="stop4301" /><stop
         style="stop-opacity:1;stop-color:#ffffff"
         offset="0.999539"
         id="stop4303" /><stop
         style="stop-opacity:1;stop-color:#ffffff"
         offset="1"
         id="stop4305" /></linearGradient></defs><g
     id="g10"
     inkscape:groupmode="layer"
     inkscape:label="_Logo"
     transform="matrix(1.25,0,0,-1.25,0,1156.25)"><g
       id="g12"><g
         id="g14"
         clip-path="url(#clipPath16)"><g
           id="g20"><g
             id="g22"><path
               d="m 1849.014,710.463 c -6.107,-11.333 -9.149,-21.564 -9.149,-30.715 l 0,0 c 0,-13.508 6.963,-23.312 20.912,-29.405 l 0,0 c 3.92,-1.749 8.496,-2.617 13.725,-2.617 l 0,0 c 14.376,0 26.793,8.496 37.251,25.488 l 0,0 c 3.481,6.094 5.225,13.289 5.225,21.563 l 0,0 c 0,14.811 -6.974,25.27 -20.908,31.375 l 0,0 c -3.922,1.303 -8.07,1.957 -12.418,1.957 l 0,0 c -17.434,0 -28.981,-5.88 -34.638,-17.646"
               style="fill:url(#linearGradient24-130-935);stroke:none"
               id="path36"
               inkscape:connector-curvature="0" /></g></g></g></g><g
       id="g38"><g
         id="g40"
         clip-path="url(#clipPath42)"><g
           id="g46"><g
             id="g48"><path
               d="m 601.464,724.191 c -7.843,-2.616 -14.164,-8.937 -18.952,-18.955 l 0,0 c -5.229,-12.199 -22.445,-65.351 -51.63,-159.463 l 0,0 C 514.319,490.88 500.922,444.368 490.691,406.246 l 0,0 c -3.498,-13.038 -6.628,-25.071 -9.44,-36.246 l 0,0 c -0.008,-0.01 -0.017,-0.011 -0.024,-0.022 l 0,0 c -8.282,-11.765 -20.26,-22.004 -35.947,-30.713 l 0,0 c -13.069,-7.414 -23.749,-11.339 -32.022,-11.766 l 0,0 c -18.298,-0.881 -29.192,-0.113 -32.676,2.289 l 0,0 c -3.49,2.388 -3.707,5.114 -0.654,8.169 l 0,0 c 3.921,3.918 9.15,11.76 15.689,23.526 l 0,0 c 4.347,8.268 7.514,16.011 9.472,23.199 l 0,0 c 1.962,7.188 3.157,13.829 3.595,19.935 l 0,0 c 0.866,22.645 -4.146,44.65 -15.03,66.007 l 0,0 c -4.362,8.71 -8.495,16.111 -12.418,22.218 l 0,0 c -3.921,6.093 -8.065,10.885 -12.417,14.375 l 0,0 c -2.186,1.736 -2.186,5.661 0,11.767 l 0,0 c 0.868,1.734 2.176,4.459 3.921,8.168 l 0,0 c 1.737,3.7 4.135,8.597 7.188,14.704 l 0,0 c 4.789,9.15 7.618,16.553 8.496,22.218 l 0,0 c 0.431,16.118 -10.027,24.614 -31.368,25.488 l 0,0 c -10.895,0.428 -22.658,-3.263 -35.293,-11.106 l 0,0 C 310,571.482 303.025,562.546 300.854,551.66 l 0,0 c -0.44,-2.188 -0.768,-4.251 -0.981,-6.207 l 0,0 c -0.227,-1.962 -0.327,-3.824 -0.327,-5.559 l 0,0 c 0,-5.667 1.194,-11.221 3.594,-16.666 l 0,0 c 2.388,-5.452 3.369,-9.697 2.94,-12.74 l 0,0 c -3.921,-11.767 -18.524,-35.519 -43.785,-71.239 l 0,0 C 250.959,423.13 240.941,409.289 232.231,397.75 l 0,0 c -8.72,-11.547 -16.124,-20.809 -22.218,-27.772 l 0,0 c -21.781,-24.406 -44.002,-38.555 -66.66,-42.479 l 0,0 c -1.734,-0.442 -2.616,-2.837 -2.616,-7.188 l 0,0 c 0,-7.843 1.531,-15.03 4.575,-21.564 l 0,0 c 0.44,-2.616 2.616,-3.924 6.537,-3.924 l 0,0 c 20.046,3.924 36.598,11.111 49.668,21.564 l 0,0 c 1.745,1.735 3.921,1.521 6.534,-0.654 l 0,0 c 17.86,-18.294 42.694,-26.57 74.503,-24.835 l 0,0 c 15.247,0.881 26.793,2.19 34.637,3.925 l 0,0 c 0.428,0.426 5.881,2.616 16.339,6.535 l 0,0 c 3.039,0.866 5.657,0.651 7.842,-0.655 l 0,0 c 5.655,-3.918 17.86,-6.534 36.597,-7.842 l 0,0 c 16.115,-0.868 30.491,-0.213 43.131,1.962 l 0,0 c 17.404,2.799 33.228,9.324 47.53,19.435 l 0,0 c -1.57,-11.728 2.796,-18.888 13.237,-21.397 l 0,0 c 3.921,-1.31 12.417,-0.654 25.489,1.962 l 0,0 c 8.708,1.308 14.806,7.615 18.3,18.954 l 0,0 c 8.71,27.444 25.702,60.34 50.973,98.682 l 0,0 c 29.623,44.872 51.405,71.446 65.353,79.728 l 0,0 c 6.964,4.352 12.634,6.534 16.992,6.534 l 0,0 c 4.351,0 6.535,-2.609 6.535,-7.841 l 0,0 c 0,-2.617 -0.225,-4.572 -0.652,-5.88 l 0,0 c -3.494,-9.591 -6.864,-19.173 -10.131,-28.759 l 0,0 c -3.267,-9.584 -6.648,-19.174 -10.128,-28.752 l 0,0 C 632.394,391.757 625.207,367.79 623.03,355.603 l 0,0 c -0.441,-3.497 -0.766,-6.647 -0.982,-9.477 l 0,0 c -0.222,-2.843 -0.325,-5.126 -0.325,-6.861 l 0,0 c 0,-13.515 7.515,-24.835 22.547,-33.984 l 0,0 c 15.029,-9.15 38.884,-13.73 71.56,-13.73 l 0,0 c 6.537,0 12.744,0.328 18.627,0.982 l 0,0 c 5.88,0.655 11.649,1.422 17.319,2.29 l 0,0 c 24.394,3.924 45.747,15.03 64.043,33.331 l 0,0 c 0.543,0.54 1.043,1.246 1.503,2.111 l 0,0 c 4.577,-6.22 9.919,-11.958 16.141,-17.142 l 0,0 c 20.477,-16.566 55.766,-24.834 105.871,-24.834 l 0,0 c 23.957,0 45.523,1.962 64.702,5.88 l 0,0 c 22.805,4.068 42.917,14.319 60.394,30.579 l 0,0 c 4.176,-10.665 11.447,-18.931 21.94,-24.701 l 0,0 c 13.071,-6.092 29.409,-9.149 49.014,-9.149 l 0,0 c 12.193,0 25.265,1.309 39.213,3.925 l 0,0 c 24.394,3.924 45.744,15.03 64.045,33.331 l 0,0 c 0.8,0.8 1.481,2.077 2.105,3.583 l 0,0 c 4.776,-10.992 12.545,-20.043 23.373,-27.11 l 0,0 c 13.938,-8.722 33.761,-13.076 59.472,-13.076 l 0,0 c 10.018,0 21.127,1.097 33.331,3.272 l 0,0 c 20.079,3.23 38.064,11.407 54.015,24.377 l 0,0 c 2.16,-3.544 4.604,-6.895 7.409,-10.001 l 0,0 c 11.763,-14.376 28.318,-21.564 49.667,-21.564 l 0,0 c 22.223,0 45.525,10.884 69.929,32.676 l 0,0 c 16.992,15.242 28.755,29.406 35.289,42.48 l 0,0 c 0.872,1.735 2.066,3.263 3.598,4.572 l 0,0 c 1.521,1.308 2.716,1.734 3.592,1.308 l 0,0 c 0.428,-0.881 0.428,-2.182 0,-3.924 l 0,0 c -3.492,-13.068 -5.228,-22.659 -5.228,-28.752 l 0,0 c 0,-13.069 5.556,-23.638 16.667,-31.695 l 0,0 c 11.107,-8.07 31.91,-12.093 62.41,-12.093 l 0,0 c 6.099,0 11.977,0.225 17.644,0.654 l 0,0 c 5.659,0.44 11.112,1.094 16.341,1.962 l 0,0 c 24.041,3.867 45.111,14.745 63.233,32.574 l 0,0 c 2.191,-3.697 4.771,-7.283 7.991,-10.683 l 0,0 c 3.922,-4.145 9.15,-8.603 15.685,-13.395 l 0,0 c 10.886,-7.414 30.277,-11.112 58.165,-11.112 l 0,0 c 6.095,0 11.866,0.225 17.319,0.654 l 0,0 c 4.969,0.4 9.826,1.032 14.617,1.791 l 0,0 c 0.636,-0.101 1.307,-0.074 2.044,0.171 l 0,0 c 19.179,3.043 37.253,11.111 54.244,24.18 l 0,0 c 27.447,22.651 50.323,52.056 68.62,88.224 l 0,0 c 0.43,0.868 3.483,8.17 9.15,21.897 l 0,0 c 5.655,13.723 13.937,34.085 24.834,61.101 l 0,0 c 2.176,6.102 5.002,8.056 8.497,5.887 l 0,0 c 14.374,-7.849 23.085,-14.823 26.137,-20.917 l 0,0 c 3.044,-6.534 3.044,-12.413 0,-17.646 l 0,0 c -3.49,-5.666 -8.719,-18.3 -15.683,-37.902 l 0,0 c -4.799,-12.64 -8.824,-24.407 -12.092,-35.291 l 0,0 c -3.266,-10.893 -5.992,-21.351 -8.167,-31.369 l 0,0 c -1.309,-6.106 -1.959,-11.333 -1.959,-15.684 l 0,0 c 0,-17.432 9.474,-30.5 28.428,-39.21 l 0,0 c 9.511,-4.373 21.636,-6.82 36.362,-7.353 l 0,0 c 0.058,0.264 0.139,0.522 0.199,0.786 l 0,0 634.869,0.042 c 10.726,0 29.615,8.733 29.615,19.458 l 0,0 c 0,10.725 -9.78,14.807 -20.503,14.807 l 0,0 -635.251,3.616 c -0.215,0 -0.457,-0.023 -0.678,-0.029 l 0,0 c -9.512,3.353 -13.257,10.488 -10.96,21.605 l 0,0 c 0.872,3.924 3.158,10.999 6.865,21.244 l 0,0 c 3.697,10.231 9.037,23.626 16.011,40.19 l 0,0 c 13.939,33.985 21.568,54.454 22.871,61.429 l 0,0 c 1.739,11.324 -1.745,20.689 -10.455,28.104 l 0,0 c -5.228,4.352 -15.683,10.886 -31.368,19.601 l 0,0 c -7.846,4.352 -14.379,7.736 -19.607,10.131 l 0,0 c -5.227,2.39 -9.374,4.352 -12.417,5.881 l 0,0 c -3.054,1.521 -5.011,2.943 -5.88,4.251 l 0,0 c -0.878,1.308 -0.878,3.27 0,5.879 l 0,0 c 2.614,7.409 3.694,13.076 3.265,16.993 l 0,0 c -1.745,20.916 -11.106,31.589 -28.099,32.022 l 0,0 c -20.046,0.434 -32.463,-11.76 -37.251,-36.594 l 0,0 c -0.441,-2.188 -0.768,-4.365 -0.981,-6.534 l 0,0 c -0.224,-2.187 -0.328,-4.15 -0.328,-5.887 l 0,0 c 0,-5.665 1.309,-11.106 3.921,-16.337 l 0,0 c 2.617,-5.226 4.138,-9.151 4.575,-11.76 l 0,0 c 0,-0.441 -0.113,-0.981 -0.328,-1.635 l 0,0 c -0.222,-0.654 -0.55,-1.862 -0.98,-3.597 l 0,0 c -7.841,-28.325 -18.951,-57.075 -33.327,-86.263 l 0,0 c -13.07,-26.583 -23.966,-45.316 -32.679,-56.202 l 0,0 c -9.488,-10.803 -17.377,-19.019 -23.672,-24.655 l 0,0 c -3.89,-2.779 -7.933,-5.477 -12.267,-8.021 l 0,0 c -5.587,-3.352 -10.645,-5.837 -15.355,-7.755 l 0,0 c -3.536,-1.258 -7.283,-2.396 -11.243,-3.411 l 0,0 c -1.886,-0.325 -3.741,-0.6 -5.424,-0.6 l 0,0 c -22.662,0 -38.348,3.697 -47.056,11.112 l 0,0 c -3.054,2.61 -4.576,6.749 -4.576,12.414 l 0,0 c 0,4.793 1.736,13.074 5.229,24.835 l 0,0 c 10.017,29.185 19.382,57.069 28.101,83.65 l 0,0 c 8.709,26.571 17.205,52.059 25.489,76.466 l 0,0 c 0.868,5.226 0.099,10.231 -2.291,15.03 l 0,0 c -2.397,4.785 -5.551,7.615 -9.472,8.496 l 0,0 c -14.378,3.918 -29.848,3.484 -46.401,-1.309 l 0,0 c -7.415,-2.181 -12.419,-8.721 -15.029,-19.607 l 0,0 c -4.363,-13.949 -8.611,-27.885 -12.744,-41.827 l 0,0 c -4.149,-13.949 -8.397,-27.883 -12.744,-41.819 l 0,0 c -7.416,-24.835 -14.693,-44.769 -18.391,-59.799 l 0,0 C 1745.238,380.111 1741,370.193 1741,365.402 l 0,0 0,-0.201 c 0,-4.218 -5.598,-8.248 -10.03,-11.886 l 0,0 c -6.106,-5.013 -11.995,-9.705 -19.397,-14.05 l 0,0 c -13.071,-7.842 -23.322,-11.766 -31.593,-11.766 l 0,0 c -22.22,0 -36.606,3.484 -43.57,10.458 l 0,0 c -3.052,3.043 -4.467,7.403 -4.467,13.068 l 0,0 c 0,6.099 1.574,13.722 4.63,22.873 l 0,0 c 3.042,9.149 6.885,19.934 11.461,32.348 l 0,0 c 4.577,12.421 10.358,26.683 17.333,42.806 l 0,0 c 18.301,40.953 30.498,67.97 36.604,81.038 l 0,0 c 3.044,8.276 2.392,14.81 -1.956,19.608 l 0,0 c -3.052,2.617 -10.68,5.005 -22.873,7.188 l 0,0 c -12.2,2.616 -20.482,3.27 -24.834,1.962 l 0,0 c -3.49,-1.308 -6.973,-3.704 -10.454,-7.188 l 0,0 c -2.185,-2.188 -4.798,-5.666 -7.842,-10.458 l 0,0 c -2.615,-4.798 -7.414,-5.226 -14.378,-1.308 l 0,0 c -14.817,7.841 -31.156,11.541 -49.015,11.112 l 0,0 c -23.965,-0.44 -47.707,-7.188 -71.235,-20.263 l 0,0 c -31.37,-17.425 -55.771,-42.913 -73.195,-76.457 l 0,0 c -17.419,-33.118 -26.138,-63.831 -26.138,-92.149 l 0,0 c 0,-3.259 0.181,-6.395 0.453,-9.469 l 0,0 c -5.89,-4.762 -12.33,-9.251 -19.401,-13.403 l 0,0 c -13.072,-7.842 -23.754,-11.766 -32.022,-11.766 l 0,0 c -17.433,0 -31.372,5.226 -41.826,15.684 l 0,0 c -7.416,7.401 -8.937,18.3 -4.576,32.677 l 0,0 c 6.965,22.651 13.398,44.002 19.278,64.043 l 0,0 c 5.883,20.037 11.213,38.776 16.012,56.209 l 0,0 c 1.738,3.918 4.349,5.88 7.841,5.88 l 0,0 c 31.372,0 46.179,-0.227 44.442,-0.654 l 0,0 c 4.349,0.427 7.189,2.389 8.497,5.879 l 0,0 c 3.921,8.711 5.443,16.119 4.571,22.219 l 0,0 c -0.877,5.232 -2.612,8.062 -5.225,8.496 l 0,0 c -7.415,0.434 -14.379,0.76 -20.913,0.981 l 0,0 c -6.538,0.213 -12.417,0.327 -17.646,0.327 l 0,0 c -4.358,1.308 -6.107,3.924 -5.229,7.842 l 0,0 c 6.096,20.035 12.193,39.543 18.3,58.491 l 0,0 c 6.097,18.954 12.192,37.581 18.296,55.877 l 0,0 c 1.739,10.883 -0.651,17.425 -7.187,19.607 l 0,0 c -16.562,4.352 -32.9,4.352 -49.014,0 l 0,0 c -7.412,-2.182 -11.987,-5.453 -13.723,-9.806 l 0,0 c -6.974,-22.657 -13.511,-44.108 -19.608,-64.369 l 0,0 c -6.106,-20.257 -11.763,-39.693 -16.992,-58.42 l 0,0 c -3.054,-4.358 -5.666,-6.462 -7.842,-6.462 l 0,0 -3.921,0 -6.534,0 -10.458,0 c -6.104,0 -10.677,-1.934 -13.722,-6.279 l 0,0 c -1.749,-4.798 -3.167,-8.809 -4.248,-12.294 l 0,0 c -1.086,-3.489 -2.062,-6.469 -2.943,-9.085 l 0,0 c -2.173,-5.226 -1.305,-8.25 2.616,-9.118 l 0,0 c 5.229,-0.434 9.905,-0.745 14.049,-0.958 l 0,0 c 4.137,-0.227 7.945,-0.32 11.439,-0.32 l 0,0 c 4.348,-1.308 6.31,-3.493 5.88,-6.537 l 0,0 c -0.438,-0.874 -1.959,-6.103 -4.575,-15.681 l 0,0 c -2.613,-9.584 -6.534,-23.525 -11.763,-41.826 l 0,0 c -10.486,-35.641 -16.067,-58.638 -16.868,-69.256 l 0,0 c -0.257,-0.223 -0.499,-0.345 -0.768,-0.668 l 0,0 c -4.362,-6.106 -9.588,-11.657 -15.685,-16.663 l 0,0 c -6.106,-5.013 -12.857,-9.705 -20.259,-14.05 l 0,0 c -13.07,-7.842 -23.752,-11.766 -32.022,-11.766 l 0,0 c -23.529,0 -38.345,3.043 -44.442,9.151 l 0,0 c -3.053,3.042 -4.575,7.4 -4.575,13.067 l 0,0 c 0,4.792 1.522,13.288 4.575,25.489 l 0,0 c 9.581,43.133 26.568,101.298 50.976,174.492 l 0,0 c 6.534,14.81 11.109,23.953 13.726,27.449 l 0,0 c 20.913,27.879 35.943,55.323 45.093,82.346 l 0,0 c 2.613,8.269 3.92,16.111 3.92,23.526 l 0,0 c 0,11.758 -2.943,21.451 -8.822,29.079 l 0,0 c -5.883,7.62 -13.399,11.866 -22.549,12.748 l 0,0 c -27.016,2.175 -47.929,-16.339 -62.735,-55.556 l 0,0 c -13.949,-35.285 -28.983,-81.256 -45.094,-137.892 l 0,0 c -20.046,-70.577 -31.799,-123.303 -35.292,-158.155 l 0,0 c -0.209,-2.56 -0.394,-4.953 -0.555,-7.2 l 0,0 c -18.137,-22.707 -39.918,-35.418 -65.442,-37.889 l 0,0 c -41.395,-3.925 -71.672,-0.442 -90.84,10.457 l 0,0 c -5.229,2.61 -7.842,4.787 -7.842,6.534 l 0,0 c 0,0.427 1.081,1.736 3.267,3.917 l 0,0 c 8.272,6.101 16.665,12.962 25.162,20.59 l 0,0 c 8.495,7.614 17.09,16.225 25.814,25.815 l 0,0 c 27.874,30.06 43.562,55.547 47.052,76.458 l 0,0 c 1.309,7.849 1.962,15.249 1.962,22.225 l 0,0 c 0,31.368 -12.644,52.498 -37.905,63.39 l 0,0 c -6.534,3.043 -15.47,4.578 -26.796,4.578 l 0,0 c -20.042,0 -39.434,-5.232 -58.161,-15.69 l 0,0 C 854.591,534.227 836.947,515.714 824.314,490.88 l 0,0 c -17.42,-34.419 -26.14,-66.661 -26.14,-96.721 l 0,0 c 0,-12.53 1.603,-24.05 4.72,-34.617 l 0,0 c -2.129,-2.138 -4.283,-4.26 -6.678,-6.227 l 0,0 c -6.107,-5.013 -12.858,-9.705 -20.259,-14.05 l 0,0 c -13.072,-7.842 -23.753,-11.766 -32.022,-11.766 l 0,0 c -17.433,0 -30.942,1.962 -40.522,5.88 l 0,0 c -9.588,3.924 -14.376,10.671 -14.376,20.262 l 0,0 c 0,7.401 1.521,15.456 4.575,24.18 l 0,0 c 8.708,26.142 16.438,49.441 23.199,69.924 l 0,0 c 6.75,20.476 12.958,38.336 18.628,53.593 l 0,0 c 1.304,4.351 1.958,8.709 1.958,13.068 l 0,0 c 0,21.783 -9.587,35.719 -28.755,41.826 l 0,0 c -5.229,1.736 -11.551,2.616 -18.951,2.616 l 0,0 c -21.354,0 -40.091,-7.842 -56.205,-23.525 l 0,0 c -5.228,-4.799 -10.897,-10.786 -16.99,-17.974 l 0,0 c -6.106,-7.188 -12.857,-15.144 -20.259,-23.853 l 0,0 c -6.535,-7.842 -11.663,-14.162 -15.36,-18.955 l 0,0 c -3.707,-4.798 -5.993,-8.068 -6.861,-9.804 l 0,0 c -0.441,-1.742 -1.308,-2.609 -2.612,-2.609 l 0,0 c -4.362,0 -5.016,3.477 -1.963,10.451 l 0,0 c 2.176,5.66 10.232,26.25 24.18,61.762 l 0,0 c 13.939,35.507 33.761,86.369 59.473,152.596 l 0,0 c 2.613,6.54 3.92,12.193 3.92,16.993 l 0,0 c 0,6.533 -3.267,12.419 -9.803,17.645 l 0,0 c -3.054,2.175 -10.457,3.697 -22.219,4.577 l 0,0 c -11.335,0 -19.177,-0.653 -23.528,-1.961 M 864.835,394.159 c 0,19.609 6.963,44.002 20.913,73.195 l 0,0 c 6.093,13.068 14.48,23.626 25.157,31.695 l 0,0 c 10.673,8.055 20.364,12.093 29.083,12.093 l 0,0 c 12.634,0 18.954,-7.415 18.954,-22.224 l 0,0 c 0,-10.452 -4.798,-23.747 -14.379,-39.866 l 0,0 c -15.254,-26.141 -37.476,-48.359 -66.662,-66.659 l 0,0 c -2.653,-1.859 -4.902,-2.787 -6.747,-2.787 l 0,0 c -10e-4,0 -0.002,0 -0.003,0 l 0,0 c -4.214,0 -6.316,4.851 -6.316,14.553 m 603.834,-28.757 c 0,21.342 9.804,47.485 29.41,78.426 l 0,0 c 10.884,16.551 25.261,30.713 43.13,42.48 l 0,0 c 18.729,11.759 34.639,17.206 47.709,16.338 l 0,0 c 14.807,-0.441 22.22,-4.365 22.22,-11.766 l 0,0 c 0,-1.743 -0.224,-3.05 -0.655,-3.918 l 0,0 C 1590,442.948 1569.741,408.749 1549.706,384.356 l 0,0 c -7.412,-8.724 -13.399,-15.8 -17.97,-21.238 l 0,0 c -4.575,-5.453 -7.955,-9.262 -10.13,-11.439 l 0,0 c -11.337,-11.332 -21.139,-16.992 -29.411,-16.992 l 0,0 c -15.683,0 -23.526,10.231 -23.526,30.715 M 276.671,334.032 c -2.613,11.328 -7.626,18.727 -15.03,22.225 l 0,0 c -5.229,1.736 -7.843,3.918 -7.843,6.534 l 0,0 c 0,1.308 1.082,3.477 3.267,6.534 l 0,0 c 5.658,6.535 16.769,20.256 33.331,41.172 l 0,0 c 18.727,24.835 28.968,39.21 30.717,43.135 l 0,0 c 1.305,3.042 3.045,4.571 5.226,4.571 l 0,0 c 2.175,0.868 3.92,-0.226 5.229,-3.263 l 0,0 c 4.789,-10.459 7.187,-23.753 7.187,-39.871 l 0,0 c 0,-12.2 -1.53,-22.872 -4.574,-32.022 l 0,0 c -8.279,-26.576 -22.872,-43.355 -43.785,-50.322 l 0,0 c -3.552,-1.119 -6.422,-1.68 -8.61,-1.68 l 0,0 c -10e-4,0 -0.002,0 -0.003,0 l 0,0 c -2.913,0 -4.615,0.995 -5.112,2.987"
               style="fill:url(#linearGradient50-21-345);stroke:none"
               id="path62"
               inkscape:connector-curvature="0" /></g></g></g></g></g></svg>